<svg width="14" height="14" viewBox="0 0 14 14" fill="none" xmlns="http://www.w3.org/2000/svg">
<path d="M1.14799 2.77235H12.8523C13.2865 2.77235 13.6502 2.42235 13.6502 1.97446C13.6502 1.52603 13.3002 1.17603 12.8523 1.17603H1.14799C0.700098 1.17603 0.350098 1.54025 0.350098 1.97446C0.350098 2.40814 0.700098 2.77235 1.14799 2.77235Z" fill="white"/>
<path d="M12.8523 6.20239H1.14799C0.713762 6.20239 0.350098 6.55239 0.350098 7.00028C0.350098 7.44817 0.700098 7.79817 1.14799 7.79817H12.8523C13.2865 7.79817 13.6502 7.44817 13.6502 7.00028C13.6502 6.55239 13.3002 6.20239 12.8523 6.20239Z" fill="white"/>
<path d="M12.8523 11.2283H1.14799C0.713762 11.2283 0.350098 11.5783 0.350098 12.0262C0.350098 12.474 0.700098 12.824 1.14799 12.824H12.8523C13.2865 12.824 13.6502 12.4598 13.6502 12.0262C13.6502 11.5925 13.3002 11.2283 12.8523 11.2283Z" fill="white"/>
</svg>
