<svg width="63" height="54" viewBox="0 0 63 54" fill="none" xmlns="http://www.w3.org/2000/svg">
<path d="M16.2599 18.4154V22.3835C17.2605 21.2784 17.958 19.9471 18.2883 18.5122C17.6212 18.38 16.9372 18.3473 16.2599 18.4154Z" fill="#0066FD"/>
<path d="M53.9483 19.8673C53.873 19.8226 53.8033 19.7695 53.7408 19.709L45.9458 12.156L46.5591 16.0191C46.5845 16.1794 46.5725 16.3432 46.5242 16.4985C46.4759 16.6538 46.3924 16.7966 46.2798 16.9167C46.1671 17.0367 46.0283 17.1308 45.8733 17.1921C45.7183 17.2535 45.5512 17.2805 45.384 17.2712C45.0163 17.2508 44.656 17.2403 44.3131 17.2403C42.095 17.2368 39.8946 17.6227 37.8185 18.3794C37.5985 21.9548 36.3646 25.402 34.2526 28.3416C32.1406 31.2812 29.2324 33.5992 25.8482 35.0403C25.8482 35.0712 25.8468 35.102 25.8468 35.133C25.8468 44.9988 34.1308 53.0252 44.3131 53.0252C54.4953 53.0252 62.7792 44.9988 62.7792 35.133C62.7901 32.0668 61.9827 29.0499 60.4354 26.3751C58.8881 23.7003 56.6534 21.4585 53.9483 19.8673ZM49.9111 41.2765C49.7768 41.3357 49.6317 41.3686 49.4842 41.3735C49.3367 41.3784 49.1897 41.355 49.0515 41.3048C48.9133 41.2546 48.7867 41.1785 48.6788 41.0809C48.571 40.9833 48.4841 40.8661 48.423 40.7359L47.1899 38.1072H40.4644L39.2314 40.7355C39.108 40.9984 38.8819 41.203 38.6028 41.3044C38.3238 41.4058 38.0145 41.3956 37.7432 41.2761C37.4719 41.1566 37.2607 40.9375 37.156 40.6671C37.0514 40.3967 37.0619 40.0971 37.1853 39.8342L42.8041 27.857C42.8934 27.6667 43.0374 27.5053 43.2188 27.3921C43.4002 27.2789 43.6114 27.2187 43.8272 27.2187C44.0429 27.2187 44.2542 27.2789 44.4356 27.3921C44.617 27.5053 44.7609 27.6667 44.8502 27.857L50.4691 39.8342C50.5302 39.9644 50.5642 40.1049 50.5692 40.2478C50.5742 40.3907 50.5502 40.5332 50.4983 40.6671C50.4465 40.801 50.368 40.9237 50.2673 41.0282C50.1665 41.1327 50.0455 41.2169 49.9111 41.2761V41.2765Z" fill="#0066FD"/>
<path d="M35.606 17.2472C35.6056 14.2379 34.7926 11.2811 33.2479 8.67038C31.7032 6.05968 29.4805 3.88595 26.8005 2.36508C24.1205 0.844206 21.0764 0.0291181 17.9707 0.000765802C14.865 -0.0275865 11.8056 0.731783 9.09654 2.20346C6.38742 3.67513 4.12281 5.80789 2.52761 8.38993C0.932404 10.972 0.0621257 13.9134 0.00320463 16.9222C-0.0557165 19.9309 0.698771 22.9022 2.19173 25.541C3.68469 28.1799 5.86417 30.3943 8.51372 31.9645C8.58907 32.0092 8.65871 32.0623 8.72119 32.1228L16.1703 39.3404L15.5953 35.72C15.5699 35.5597 15.5818 35.396 15.6302 35.2407C15.6785 35.0854 15.762 34.9426 15.8746 34.8225C15.9871 34.7025 16.126 34.6084 16.2809 34.5471C16.4359 34.4857 16.603 34.4586 16.7701 34.4679C17.1253 34.4875 17.4724 34.4975 17.803 34.4975C22.5231 34.4924 27.0484 32.6732 30.386 29.4392C33.7236 26.2053 35.6009 21.8206 35.606 17.2472ZM23.0795 25.4151C22.8688 25.6193 22.5829 25.734 22.2849 25.734C21.9868 25.734 21.7009 25.6193 21.4902 25.4151C21.2794 25.2109 21.161 24.934 21.1609 24.6452C21.1609 24.3564 21.2793 24.0794 21.4901 23.8752C21.7587 23.615 21.9689 23.3039 22.1076 22.9614C22.2463 22.6188 22.3104 22.2521 22.2958 21.8844C22.2813 21.5167 22.1885 21.1559 22.0233 20.8245C21.858 20.4932 21.6239 20.1986 21.3356 19.9591C21.0438 19.7167 20.7314 19.4986 20.4017 19.3073C19.8973 21.223 18.8673 22.9707 17.4209 24.3653C16.9799 24.7926 16.4508 25.1249 15.8682 25.3407C15.2856 25.5564 14.6625 25.6506 14.0398 25.6173C13.4171 25.5839 12.8086 25.4236 12.2541 25.1469C11.6996 24.8702 11.2116 24.4833 10.822 24.0114C10.4454 23.5554 10.1688 23.0298 10.0089 22.4668C9.84909 21.9037 9.80936 21.315 9.89218 20.7365C9.975 20.1581 10.1786 19.6021 10.4906 19.1024C10.8027 18.6028 11.2165 18.17 11.7069 17.8305C12.4135 17.3418 13.1891 16.9543 14.0098 16.6802V13.0638H9.51472C9.21668 13.0638 8.93084 12.949 8.72009 12.7449C8.50934 12.5407 8.39095 12.2637 8.39095 11.9749C8.39095 11.6862 8.50934 11.4092 8.72009 11.205C8.93084 11.0008 9.21668 10.8861 9.51472 10.8861H14.0098V7.6196C14.0098 7.33083 14.1282 7.05388 14.339 6.84968C14.5497 6.64549 14.8355 6.53077 15.1336 6.53077C15.4316 6.53077 15.7175 6.64549 15.9282 6.84968C16.139 7.05388 16.2574 7.33083 16.2574 7.6196V10.8861H21.8762C22.1743 10.8861 22.4601 11.0008 22.6709 11.205C22.8816 11.4092 23 11.6862 23 11.9749C23 12.2637 22.8816 12.5407 22.6709 12.7449C22.4601 12.949 22.1743 13.0638 21.8762 13.0638H16.2574V16.2276C17.0082 16.1718 17.7633 16.2076 18.5049 16.3342V15.2414C18.5049 14.9526 18.6233 14.6757 18.8341 14.4715C19.0448 14.2673 19.3306 14.1526 19.6287 14.1526C19.9267 14.1526 20.2126 14.2673 20.4233 14.4715C20.6341 14.6757 20.7525 14.9526 20.7525 15.2414V16.5706C20.7525 16.7203 20.7495 16.8707 20.7433 17.0198C21.485 17.3563 22.1761 17.7889 22.7976 18.3057C23.321 18.7404 23.7461 19.2753 24.0462 19.8767C24.3462 20.4782 24.5148 21.1332 24.5413 21.8007C24.5677 22.4682 24.4516 23.1338 24.2 23.7558C23.9485 24.3778 23.567 24.9427 23.0795 25.4151Z" fill="#0066FD"/>
<path d="M12.1193 21.0349C12.0792 21.3126 12.0965 21.5952 12.1702 21.8664C12.2439 22.1375 12.3725 22.3917 12.5486 22.6143C12.7246 22.8368 12.9445 23.0232 13.1956 23.1626C13.4467 23.302 13.7238 23.3917 14.011 23.4264V19.0303C13.6626 19.193 13.3293 19.3842 13.0145 19.6019C12.7717 19.7684 12.567 19.9816 12.4129 20.2281C12.2589 20.4747 12.159 20.7493 12.1193 21.0349Z" fill="#0066FD"/>
<path d="M41.4852 35.929H46.1677L43.8265 30.9385L41.4852 35.929Z" fill="#0066FD"/>
</svg>
