<svg width="40" height="40" viewBox="0 0 40 40" fill="none" xmlns="http://www.w3.org/2000/svg">
<path d="M39.5234 19.3984C39.2109 9.0936 30.9142 0.796795 20.6094 0.484394C9.39858 0.140644 0.140583 9.39079 0.484581 20.6092C0.797081 30.914 9.09378 39.2108 19.3986 39.5232C30.6174 39.8669 39.875 30.6092 39.5234 19.3984ZM24.2266 14.8048L20.1174 18.914C19.5158 19.5156 19.5158 20.4765 20.1174 21.0781L24.2266 25.2029C24.8281 25.8044 24.8281 26.7654 24.2266 27.367C23.625 27.9685 22.6641 27.9685 22.0625 27.367L15.7733 21.0778C15.1717 20.4762 15.1717 19.5153 15.7733 18.9137L22.0625 12.6401C22.6641 12.0385 23.625 12.0385 24.2266 12.6401C24.8281 13.2338 24.8281 14.2026 24.2266 14.8042V14.8048Z" fill="#0066FD"/>
</svg>
