<svg width="80" height="80" viewBox="0 0 80 80" fill="none" xmlns="http://www.w3.org/2000/svg">
<g clip-path="url(#clip0)">
<path d="M25.9372 69C26.3216 62.8338 28.7755 58.575 31.5224 54.9072C29.9146 52.3712 28.0794 50.079 26.2607 47.8266C21.9529 42.5016 17.4995 36.996 17.4995 28.9992C17.4995 27.9445 17.5979 26.9062 17.7386 25.8796C16.5081 26.5593 15.3784 27.4054 14.394 28.3921C11.68 31.1085 9.99951 34.8583 9.99951 39.0001C9.99951 50.2501 23.1245 54.0001 24.0623 69.0001L25.9372 69Z" fill="#0066FD"/>
<path d="M62.2614 25.8798C62.402 26.9087 62.5004 27.9447 62.5004 28.9993C62.5004 36.9937 58.0473 42.5017 53.7392 47.8267C51.9158 50.0791 50.0806 52.3713 48.4775 54.9073C51.2267 58.5753 53.6783 62.8291 54.0627 69.0001H55.9377C56.8752 54.0001 70.0005 50.2501 70.0005 39.0001C70.0005 34.8588 68.32 31.1089 65.606 28.3921C64.6216 27.4054 63.4896 26.5593 62.2615 25.8796L62.2614 25.8798Z" fill="#0066FD"/>
<path d="M41.2494 69.0001C42.5009 49.0009 59.9994 43.9993 59.9994 28.9993C59.9994 23.4774 57.7587 18.4759 54.14 14.8573C50.5236 11.2409 45.5222 9.00024 40.0004 9.00024C34.4786 9.00024 29.477 11.2409 25.8608 14.8573C22.2374 18.4784 20.0015 23.4775 20.0015 28.9993C20.0015 43.9993 37.5023 48.9985 38.7515 69.0001H41.2494ZM32.5002 28.9993C32.5002 24.8579 35.8611 21.4993 40.0002 21.4993C44.1392 21.4993 47.5002 24.8579 47.5002 28.9993C47.5002 33.1406 44.1392 36.4993 40.0002 36.4993C35.8611 36.4993 32.5002 33.143 32.5002 28.9993Z" fill="#0066FD"/>
</g>
<defs>
<clipPath id="clip0">
<rect width="60" height="60" fill="white" transform="translate(10 9)"/>
</clipPath>
</defs>
</svg>
