<svg width="40" height="40" viewBox="0 0 40 40" fill="none" xmlns="http://www.w3.org/2000/svg">
<path d="M0.476554 20.6016C0.789054 30.9064 9.08575 39.2032 19.3906 39.5156C30.6014 39.8594 39.8594 30.6092 39.5154 19.3908C39.2029 9.08601 30.9062 0.789204 20.6014 0.476804C9.38255 0.133052 0.124954 9.39081 0.476554 20.6016ZM15.7734 25.1952L19.8826 21.086C20.4841 20.4844 20.4841 19.5235 19.8826 18.9219L15.7734 14.7971C15.1718 14.1956 15.1718 13.2346 15.7734 12.633C16.3749 12.0315 17.3358 12.0315 17.9374 12.633L24.2266 18.9222C24.8282 19.5238 24.8282 20.4847 24.2266 21.0863L17.9374 27.3599C17.3359 27.9615 16.375 27.9615 15.7734 27.3599C15.1718 26.7662 15.1718 25.7974 15.7734 25.1958V25.1952Z" fill="#0066FD"/>
</svg>
