<svg width="60" height="56" viewBox="0 0 60 56" fill="none" xmlns="http://www.w3.org/2000/svg">
<path d="M7.48786 24.1877C6.84878 24.1877 6.20971 23.9507 5.72291 23.479C4.74682 22.5333 4.74682 21.0046 5.72291 20.0589L22.963 3.35481C23.939 2.40907 25.5168 2.40907 26.4928 3.35481C27.4689 4.30056 27.4689 5.82922 26.4928 6.77497L9.2528 23.479C8.76601 23.9507 8.12693 24.1877 7.48786 24.1877Z" fill="#0066FD"/>
<path d="M28.083 12.0938C27.5962 12.0938 27.1169 11.91 26.7599 11.5617L18.0225 3.09602C17.4858 2.5784 17.326 1.79714 17.6156 1.11989C17.9052 0.442634 18.5892 0 19.3456 0H28.083C29.1165 0 29.9553 0.812704 29.9553 1.81407V10.2797C29.9553 11.0126 29.4984 11.6754 28.7994 11.9559C28.5673 12.0479 28.3251 12.0938 28.083 12.0938Z" fill="#0066FD"/>
<path d="M17.4737 34.4668V48.3748H2.49536V34.4668C2.49536 32.7979 3.89334 31.4434 5.61584 31.4434H14.3532C16.0757 31.4434 17.4737 32.7979 17.4737 34.4668Z" fill="#0066FD"/>
<path d="M37.445 24.7928V48.3759H22.4667V24.7928C22.4667 23.1238 23.8647 21.7693 25.5872 21.7693H34.3245C36.047 21.7693 37.445 23.1238 37.445 24.7928Z" fill="#0066FD"/>
<path d="M57.419 15.1177V48.3758H42.4407V15.1177C42.4407 13.4487 43.8387 12.0942 45.5612 12.0942H54.2985C56.021 12.0942 57.419 13.4487 57.419 15.1177Z" fill="#0066FD"/>
<path d="M58.041 55.6321H1.87229C0.838786 55.6321 0 54.8194 0 53.818C0 52.8166 0.838786 52.0039 1.87229 52.0039H58.041C59.0745 52.0039 59.9133 52.8166 59.9133 53.818C59.9133 54.8194 59.0745 55.6321 58.041 55.6321Z" fill="#0066FD"/>
</svg>
