<svg width="96" height="16" viewBox="0 0 96 16" fill="none" xmlns="http://www.w3.org/2000/svg">
<path d="M15.4999 5.60207H10.9999C10.6991 5.60207 10.3984 5.40285 10.3007 5.10207L8.9023 0.80127C8.70308 0.10205 7.7031 0.10205 7.4023 0.80127L6 5.10207C5.89844 5.40285 5.60156 5.60207 5.30078 5.60207H0.80078C0.30078 5.60207 0 6.00051 0 6.39895C0 6.59817 0.10156 6.89895 0.30078 7.00051L3.99998 9.60211C4.30076 9.80133 4.39842 10.1021 4.30076 10.5006L2.90236 14.8014C2.70314 15.3014 3.20314 15.8014 3.60158 15.8014C3.8008 15.8014 3.90236 15.8013 4.10158 15.6021L7.69928 13.0005C8.00006 12.8013 8.30084 12.8013 8.59772 13.0005L12.1993 15.6021C12.8009 16.0006 13.5977 15.4029 13.3985 14.7037L12.0001 10.5006C11.8986 10.1998 12.0001 9.80137 12.3009 9.60215L15.9025 6.90295C16.1017 6.70373 16.2033 6.50451 16.2033 6.30139C16.3009 6.00061 16.0002 5.60217 15.5002 5.60217L15.4999 5.60207Z" fill="#E4C20B"/>
<path d="M35.3979 5.60207H30.8979C30.5971 5.60207 30.2963 5.40285 30.1987 5.10207L28.8003 0.80127C28.601 0.10205 27.6011 0.10205 27.3003 0.80127L25.9019 5.10207C25.8003 5.40285 25.5034 5.60207 25.2026 5.60207H20.7026C20.2026 5.60207 19.9019 6.00051 19.9019 6.40285C19.9019 6.60207 20.0034 6.90285 20.2026 7.00441L23.8042 9.60601C24.105 9.80523 24.2027 10.106 24.105 10.5044L22.7066 14.8052C22.5074 15.3052 23.0074 15.8052 23.4058 15.8052C23.6051 15.8052 23.7066 15.8053 23.9058 15.606L27.5074 13.0044C27.8082 12.8052 28.109 12.8052 28.4059 13.0044L32.0075 15.606C32.609 16.0045 33.4059 15.4068 33.2067 14.7076L31.9997 10.5006C31.8981 10.1998 31.9997 9.80137 32.3005 9.60215L35.9021 6.90295C36.1013 6.70373 36.2028 6.50451 36.2028 6.30139C36.1989 6.00061 35.8981 5.60217 35.3981 5.60217L35.3979 5.60207Z" fill="#E4C20B"/>
<path d="M55.3979 5.60207H50.8979C50.5971 5.60207 50.2963 5.40285 50.1987 5.10207L48.8003 0.80127C48.601 0.10205 47.6011 0.10205 47.3003 0.80127L45.9019 5.10207C45.8003 5.40285 45.5034 5.60207 45.2026 5.60207H40.7026C40.2026 5.60207 39.9019 6.00051 39.9019 6.40285C39.9019 6.60207 40.0034 6.90285 40.2026 7.00441L43.8042 9.60601C44.105 9.80523 44.2027 10.106 44.105 10.5044L42.7066 14.8052C42.5074 15.3052 43.0074 15.8052 43.4058 15.8052C43.6051 15.8052 43.7066 15.8053 43.9058 15.606L47.5074 13.0044C47.8082 12.8052 48.109 12.8052 48.4059 13.0044L52.0075 15.606C52.609 16.0045 53.4059 15.4068 53.2067 14.7076L51.8083 10.4068C51.7067 10.106 51.8083 9.70757 52.1091 9.50835L55.7107 6.80915C55.9099 6.60993 56.0114 6.41071 56.0114 6.20759C56.1013 6.00056 55.8005 5.60212 55.3982 5.60212L55.3979 5.60207Z" fill="#E4C20B"/>
<path d="M75.3007 5.60207H70.8007C70.4999 5.60207 70.1992 5.40285 70.1015 5.10207L68.7031 0.80127C68.5039 0.10205 67.5039 0.10205 67.2031 0.80127L65.8047 5.10207C65.7031 5.40285 65.4062 5.60207 65.1055 5.60207H60.6055C60.1055 5.60207 59.8047 6.00051 59.8047 6.40285C59.8047 6.60207 59.9062 6.90285 60.1055 7.00441L63.7071 9.60601C64.0078 9.80523 64.1055 10.106 64.0078 10.5044L62.6094 14.8052C62.4102 15.3052 62.9102 15.8052 63.3087 15.8052C63.5079 15.8052 63.6094 15.8053 63.8087 15.606L67.4103 13.0044C67.711 12.8052 68.0118 12.8052 68.3087 13.0044L71.9103 15.606C72.5119 16.0045 73.3087 15.4068 73.1095 14.7076L71.7111 10.4068C71.6095 10.106 71.7111 9.70757 72.0119 9.50835L75.6135 6.80915C75.8127 6.60993 75.9143 6.41071 75.9143 6.20759C76.1018 6.00056 75.801 5.60212 75.301 5.60212L75.3007 5.60207Z" fill="#E4C20B"/>
<path d="M91.9999 9.60205L95.6015 6.90285C95.8007 6.70363 95.9023 6.50441 95.9023 6.30129C95.9023 5.90285 95.6015 5.50051 95.1015 5.50051H90.6015C90.3007 5.50051 89.9999 5.30129 89.9023 5.00051L88.5039 0.699708C88.3046 0.000487983 87.3047 0.000487983 87.0039 0.699708L85.6055 5.00051C85.5039 5.30129 85.207 5.50051 84.9062 5.50051H80.4062C79.9062 5.50051 79.6055 5.89895 79.6055 6.30129C79.6055 6.50051 79.707 6.80129 79.9062 6.90285L83.5078 9.50445C83.8086 9.70367 83.9063 10.0044 83.8086 10.4029L82.4102 14.7037C82.211 15.2037 82.711 15.7037 83.1094 15.7037C83.3087 15.7037 83.4102 15.7037 83.6094 15.5045L87.211 12.9029C87.5118 12.7036 87.8126 12.7036 88.1095 12.9029L91.7111 15.5045C92.3126 15.9029 93.1095 15.3052 92.9103 14.606L91.5119 10.3052C91.6017 10.1998 91.8009 9.80132 92.0002 9.6021L91.9999 9.60205Z" fill="#E4C20B"/>
</svg>
